<?xml version="1.0" encoding="UTF-8" standalone="no"?><!DOCTYPE svg PUBLIC "-//W3C//DTD SVG 1.1//EN" "http://www.w3.org/Graphics/SVG/1.1/DTD/svg11.dtd"><svg width="100%" height="100%" viewBox="0 0 238 229" version="1.1" xmlns="http://www.w3.org/2000/svg" xmlns:xlink="http://www.w3.org/1999/xlink" xml:space="preserve" xmlns:serif="http://www.serif.com/" style="fill-rule:evenodd;clip-rule:evenodd;stroke-linejoin:round;stroke-miterlimit:2;"><rect id="Bars" x="0" y="0" width="237.012" height="228.783" style="fill:none;"/><g><path d="M193.506,67.892c0,-1.592 -0.632,-3.118 -1.757,-4.243c-1.125,-1.125 -2.652,-1.757 -4.243,-1.757c-24.121,0 -113.879,0 -138,0c-1.591,0 -3.117,0.632 -4.243,1.757c-1.125,1.125 -1.757,2.651 -1.757,4.243c0,0.988 0,2.012 0,3c0,1.591 0.632,3.117 1.757,4.242c1.126,1.126 2.652,1.758 4.243,1.758c24.121,0 113.879,0 138,0c1.591,0 3.118,-0.632 4.243,-1.758c1.125,-1.125 1.757,-2.651 1.757,-4.242c0,-0.988 0,-2.012 0,-3Z" style="fill:#3194ff;"/><path d="M193.506,112.892c0,-1.592 -0.632,-3.118 -1.757,-4.243c-1.125,-1.125 -2.652,-1.757 -4.243,-1.757c-24.121,0 -113.879,0 -138,0c-1.591,0 -3.117,0.632 -4.243,1.757c-1.125,1.125 -1.757,2.651 -1.757,4.243c0,0.988 0,2.012 0,3c0,1.591 0.632,3.117 1.757,4.242c1.126,1.126 2.652,1.758 4.243,1.758c24.121,0 113.879,0 138,0c1.591,0 3.118,-0.632 4.243,-1.758c1.125,-1.125 1.757,-2.651 1.757,-4.242c0,-0.988 0,-2.012 0,-3Z" style="fill:#d2edf6;"/><path d="M193.506,157.892c0,-1.592 -0.632,-3.118 -1.757,-4.243c-1.125,-1.125 -2.652,-1.757 -4.243,-1.757c-24.121,0 -113.879,0 -138,0c-1.591,0 -3.117,0.632 -4.243,1.757c-1.125,1.125 -1.757,2.651 -1.757,4.243c0,0.988 0,2.012 0,3c0,1.591 0.632,3.117 1.757,4.242c1.126,1.126 2.652,1.758 4.243,1.758c24.121,0 113.879,0 138,0c1.591,0 3.118,-0.632 4.243,-1.758c1.125,-1.125 1.757,-2.651 1.757,-4.242c0,-0.988 0,-2.012 0,-3Z" style="fill:#83c3bb;"/></g></svg>