<?xml version="1.0" encoding="UTF-8" standalone="no"?><!DOCTYPE svg PUBLIC "-//W3C//DTD SVG 1.1//EN" "http://www.w3.org/Graphics/SVG/1.1/DTD/svg11.dtd"><svg width="100%" height="100%" viewBox="0 0 1571 539" version="1.1" xmlns="http://www.w3.org/2000/svg" xmlns:xlink="http://www.w3.org/1999/xlink" xml:space="preserve" xmlns:serif="http://www.serif.com/" style="fill-rule:evenodd;clip-rule:evenodd;stroke-linejoin:round;stroke-miterlimit:2;"><rect id="Artboard2" x="0" y="0" width="1570.18" height="538.963" style="fill:none;"/><clipPath id="_clip1"><rect x="0" y="0" width="1570.18" height="538.963"/></clipPath><g clip-path="url(#_clip1)"><g><text x="1263.22px" y="503.095px" style="font-family:'LucidaGrande', 'Lucida Grande', sans-serif;font-weight:500;font-size:84.918px;fill:#83c3bb;">D<tspan x="1339.57px 1399.2px 1436.48px 1473.77px 1533.4px " y="503.095px 503.095px 503.095px 503.095px 503.095px ">allas</tspan></text><g><path d="M518.206,253.528c-392.308,161.048 -401.791,82.809 -488.415,65.964c32.353,29.179 86.624,59.999 195.979,59.999c200.591,0 413.762,-135.321 575.12,-125.963c-117.912,-66.194 -238.072,-18.314 -282.684,0Z" style="fill:#d2edf6;"/><path d="M199.076,505.495c212.966,35.309 647.966,-366.732 888.858,-110.792c-24.033,-49.107 -98.973,-122.908 -208.327,-122.908c-278.543,0 -686.608,244.338 -879.607,105.216c49.709,90.301 160.591,122.104 199.076,128.484Z" style="fill:#72b1c6;"/><path d="M1080.2,429.017c-290.032,-103.797 -360.957,31.199 -849.046,107.723c292.386,-51.575 486.717,-201.797 646.95,-201.797c60.548,0 122.429,3.773 202.096,94.074Z" style="fill:#83c3bb;"/></g><text x="220.386px" y="172.405px" style="font-family:'BanglaMN', 'Bangla MN';font-size:198.143px;fill:#0071bc;">W<tspan x="431.188px 575.062px 650.136px 749.538px 892.201px 948.341px 1004.48px 1155.29px 1308.3px 1447.11px " y="172.405px 172.405px 172.405px 172.405px 172.405px 172.405px 172.405px 172.405px 172.405px 172.405px ">hite  Rock</tspan></text><text x="1064.91px" y="367.302px" style="font-family:'BanglaMN', 'Bangla MN';font-size:198.143px;fill:#72b1c6;">Y<tspan x="1187.76px 1330.87px " y="367.302px 367.302px ">og</tspan>a</text></g></g></svg>