<?xml version="1.0" encoding="UTF-8" standalone="no"?><!DOCTYPE svg PUBLIC "-//W3C//DTD SVG 1.1//EN" "http://www.w3.org/Graphics/SVG/1.1/DTD/svg11.dtd"><svg width="100%" height="100%" viewBox="0 0 1571 656" version="1.1" xmlns="http://www.w3.org/2000/svg" xmlns:xlink="http://www.w3.org/1999/xlink" xml:space="preserve" xmlns:serif="http://www.serif.com/" style="fill-rule:evenodd;clip-rule:evenodd;stroke-linejoin:round;stroke-miterlimit:2;"><rect id="Artboard2" x="0" y="0" width="1570.18" height="655.963" style="fill:none;"/><g><text x="1239.84px" y="550.17px" style="font-family:'LucidaGrande', 'Lucida Grande', sans-serif;font-weight:500;font-size:80.766px;fill:#83c3bb;">D<tspan x="1312.45px 1369.17px 1404.63px 1440.09px 1496.81px " y="550.17px 550.17px 550.17px 550.17px 550.17px ">allas</tspan></text><g><path d="M531.257,312.808c-373.121,153.173 -382.141,78.76 -464.529,62.738c30.772,27.752 82.388,57.065 186.395,57.065c190.782,0 393.528,-128.703 546.994,-119.803c-112.145,-62.956 -226.429,-17.419 -268.86,0Z" style="fill:#d2edf6;"/><path d="M227.734,552.453c202.552,33.582 616.278,-348.798 845.39,-105.373c-22.858,-46.706 -94.133,-116.898 -198.14,-116.898c-264.92,0 -653.029,232.388 -836.59,100.071c47.278,85.884 152.737,116.132 189.34,122.2Z" style="fill:#72b1c6;"/><path d="M1065.77,479.715c-275.848,-98.721 -343.305,29.674 -807.524,102.455c278.087,-49.053 462.914,-191.928 615.312,-191.928c57.587,0 116.441,3.588 192.212,89.473Z" style="fill:#83c3bb;"/></g><text x="248.003px" y="235.652px" style="font-family:'BanglaMN', 'Bangla MN';font-size:188.453px;fill:#0071bc;">W<tspan x="448.496px 585.333px 656.736px 751.276px 886.962px 940.357px 993.752px 1137.19px 1282.71px 1414.74px " y="235.652px 235.652px 235.652px 235.652px 235.652px 235.652px 235.652px 235.652px 235.652px 235.652px ">hite  Rock</tspan></text><text x="1051.23px" y="421.018px" style="font-family:'BanglaMN', 'Bangla MN';font-size:188.453px;fill:#72b1c6;">Y<tspan x="1168.07px 1304.18px " y="421.018px 421.018px ">og</tspan>a</text></g></svg>