<?xml version="1.0" encoding="UTF-8" standalone="no"?><!DOCTYPE svg PUBLIC "-//W3C//DTD SVG 1.1//EN" "http://www.w3.org/Graphics/SVG/1.1/DTD/svg11.dtd"><svg width="100%" height="100%" viewBox="0 0 1571 1571" version="1.1" xmlns="http://www.w3.org/2000/svg" xmlns:xlink="http://www.w3.org/1999/xlink" xml:space="preserve" xmlns:serif="http://www.serif.com/" style="fill-rule:evenodd;clip-rule:evenodd;stroke-linejoin:round;stroke-miterlimit:2;"><rect id="_50--Radius---Logo" serif:id="50% Radius - Logo" x="0" y="0" width="1570.18" height="1570.18" style="fill:none;"/><circle cx="785.09" cy="785.09" r="675" style="fill:none;"/><g><path d="M752.24,1023.35c-500.259,205.365 -512.352,105.596 -622.813,84.115c41.257,37.209 110.461,76.509 249.907,76.509c255.788,0 527.618,-172.557 733.376,-160.624c-150.358,-84.408 -303.582,-23.354 -360.47,0Z" style="fill:#d2edf6;"/><path d="M345.295,1344.65c271.568,45.024 826.267,-467.647 1133.45,-141.279c-30.646,-62.62 -126.208,-156.729 -265.653,-156.729c-355.19,0 -875.543,311.572 -1121.65,134.169c63.388,115.149 204.78,155.703 253.856,163.839Z" style="fill:#72b1c6;"/><path d="M1468.88,1247.13c-369.841,-132.359 -460.283,39.784 -1082.68,137.365c372.841,-65.767 620.647,-257.325 824.972,-257.325c77.209,0 156.118,4.811 257.707,119.96Z" style="fill:#83c3bb;"/></g><g transform="matrix(4.2229,0,0,4.2229,-1549.26,-4126.59)"><text x="471.162px" y="1083.49px" style="font-family:'BanglaMN', 'Bangla MN';font-size:49.769px;fill:#0071bc;">W<tspan x="524.111px 560.248px 579.105px 604.073px " y="1083.49px 1083.49px 1083.49px 1083.49px ">hite</tspan></text><text x="483.604px" y="1133.26px" style="font-family:'BanglaMN', 'Bangla MN';font-size:49.769px;fill:#0071bc;">R<tspan x="521.484px 559.917px 594.783px " y="1133.26px 1133.26px 1133.26px ">ock</tspan></text><text x="490.088px" y="1183.03px" style="font-family:'BanglaMN', 'Bangla MN';font-size:49.769px;fill:#72b1c6;">Y<tspan x="520.945px 556.889px " y="1183.03px 1183.03px ">og</tspan>a</text></g></svg>